<mxfile host="app.diagrams.net" modified="2024-03-31T12:49:02.259Z" agent="Mozilla/5.0 (Windows NT 10.0; Win64; x64) AppleWebKit/537.36 (KHTML, like Gecko) Chrome/121.0.0.0 Safari/537.36 OPR/107.0.0.0 (Edition Yx GX)" etag="JGVY5phs_BfEXzxBFFCK" version="24.2.1" type="device" pages="2">
  <diagram name="Страница — 1" id="dne-2GbdXJbpihA3PpLv">
    <mxGraphModel dx="1633" dy="797" grid="1" gridSize="10" guides="1" tooltips="1" connect="1" arrows="1" fold="1" page="1" pageScale="1" pageWidth="827" pageHeight="1169" math="0" shadow="0">
      <root>
        <mxCell id="0" />
        <mxCell id="1" parent="0" />
        <mxCell id="J8UC4zP5dDmnpQcp4e6_-1" value="" style="ellipse;html=1;shape=startState;fillColor=#000000;strokeColor=#ff0000;" parent="1" vertex="1">
          <mxGeometry x="240" width="40" height="40" as="geometry" />
        </mxCell>
        <mxCell id="J8UC4zP5dDmnpQcp4e6_-3" value="" style="ellipse;html=1;shape=endState;fillColor=#000000;strokeColor=#ff0000;" parent="1" vertex="1">
          <mxGeometry x="245" y="470" width="30" height="30" as="geometry" />
        </mxCell>
        <mxCell id="J8UC4zP5dDmnpQcp4e6_-5" value="" style="endArrow=classic;html=1;rounded=0;exitX=0.5;exitY=1;exitDx=0;exitDy=0;entryX=0.5;entryY=0;entryDx=0;entryDy=0;" parent="1" source="J8UC4zP5dDmnpQcp4e6_-1" edge="1">
          <mxGeometry width="50" height="50" relative="1" as="geometry">
            <mxPoint x="270" y="140" as="sourcePoint" />
            <mxPoint x="260" y="90" as="targetPoint" />
          </mxGeometry>
        </mxCell>
        <mxCell id="J8UC4zP5dDmnpQcp4e6_-10" value="" style="edgeStyle=orthogonalEdgeStyle;rounded=0;orthogonalLoop=1;jettySize=auto;html=1;" parent="1" source="J8UC4zP5dDmnpQcp4e6_-6" target="J8UC4zP5dDmnpQcp4e6_-8" edge="1">
          <mxGeometry relative="1" as="geometry" />
        </mxCell>
        <mxCell id="J8UC4zP5dDmnpQcp4e6_-6" value="Просмотр расписания, выбор удобного времени" style="rounded=1;whiteSpace=wrap;html=1;arcSize=40;fontColor=#000000;fillColor=#ffffc0;strokeColor=#ff0000;" parent="1" vertex="1">
          <mxGeometry x="130" y="210" width="120" height="50" as="geometry" />
        </mxCell>
        <mxCell id="J8UC4zP5dDmnpQcp4e6_-13" value="" style="edgeStyle=orthogonalEdgeStyle;rounded=0;orthogonalLoop=1;jettySize=auto;html=1;" parent="1" source="J8UC4zP5dDmnpQcp4e6_-8" target="J8UC4zP5dDmnpQcp4e6_-11" edge="1">
          <mxGeometry relative="1" as="geometry" />
        </mxCell>
        <mxCell id="J8UC4zP5dDmnpQcp4e6_-8" value="Выбор ветеринара из доступных" style="rounded=1;whiteSpace=wrap;html=1;arcSize=40;fontColor=#000000;fillColor=#ffffc0;strokeColor=#ff0000;" parent="1" vertex="1">
          <mxGeometry x="130" y="300" width="120" height="40" as="geometry" />
        </mxCell>
        <mxCell id="js38OZRFwgRTXsKy8STe-14" style="edgeStyle=orthogonalEdgeStyle;rounded=0;orthogonalLoop=1;jettySize=auto;html=1;entryX=0;entryY=0.5;entryDx=0;entryDy=0;" parent="1" source="J8UC4zP5dDmnpQcp4e6_-11" target="J8UC4zP5dDmnpQcp4e6_-3" edge="1">
          <mxGeometry relative="1" as="geometry" />
        </mxCell>
        <mxCell id="J8UC4zP5dDmnpQcp4e6_-11" value="Подтверждение записи на приём" style="rounded=1;whiteSpace=wrap;html=1;arcSize=40;fontColor=#000000;fillColor=#ffffc0;strokeColor=#ff0000;" parent="1" vertex="1">
          <mxGeometry x="130" y="380" width="120" height="40" as="geometry" />
        </mxCell>
        <mxCell id="js38OZRFwgRTXsKy8STe-1" value="" style="endArrow=classic;html=1;rounded=0;exitX=0.5;exitY=1;exitDx=0;exitDy=0;entryX=0.5;entryY=0;entryDx=0;entryDy=0;" parent="1" source="js38OZRFwgRTXsKy8STe-5" target="J8UC4zP5dDmnpQcp4e6_-6" edge="1">
          <mxGeometry width="50" height="50" relative="1" as="geometry">
            <mxPoint x="430" y="370" as="sourcePoint" />
            <mxPoint x="460" y="350" as="targetPoint" />
          </mxGeometry>
        </mxCell>
        <mxCell id="js38OZRFwgRTXsKy8STe-2" value="" style="rounded=0;whiteSpace=wrap;html=1;fillColor=#000000;" parent="1" vertex="1">
          <mxGeometry x="160" y="90" width="200" height="10" as="geometry" />
        </mxCell>
        <mxCell id="js38OZRFwgRTXsKy8STe-3" value="" style="endArrow=classic;html=1;rounded=0;exitX=0.598;exitY=0.832;exitDx=0;exitDy=0;exitPerimeter=0;" parent="1" source="js38OZRFwgRTXsKy8STe-2" edge="1">
          <mxGeometry width="50" height="50" relative="1" as="geometry">
            <mxPoint x="320" y="180" as="sourcePoint" />
            <mxPoint x="330" y="130" as="targetPoint" />
          </mxGeometry>
        </mxCell>
        <mxCell id="js38OZRFwgRTXsKy8STe-4" value="" style="endArrow=classic;html=1;rounded=0;exitX=0.406;exitY=0.947;exitDx=0;exitDy=0;exitPerimeter=0;entryX=0.498;entryY=-0.055;entryDx=0;entryDy=0;entryPerimeter=0;" parent="1" source="js38OZRFwgRTXsKy8STe-2" target="js38OZRFwgRTXsKy8STe-5" edge="1">
          <mxGeometry width="50" height="50" relative="1" as="geometry">
            <mxPoint x="240" y="180" as="sourcePoint" />
            <mxPoint x="190" y="120" as="targetPoint" />
          </mxGeometry>
        </mxCell>
        <mxCell id="js38OZRFwgRTXsKy8STe-5" value="Начать запись на приём" style="rounded=1;whiteSpace=wrap;html=1;arcSize=40;fontColor=#000000;fillColor=#ffffc0;strokeColor=#ff0000;" parent="1" vertex="1">
          <mxGeometry x="130" y="130" width="120" height="40" as="geometry" />
        </mxCell>
        <mxCell id="js38OZRFwgRTXsKy8STe-12" value="" style="edgeStyle=orthogonalEdgeStyle;rounded=0;orthogonalLoop=1;jettySize=auto;html=1;" parent="1" source="js38OZRFwgRTXsKy8STe-7" target="js38OZRFwgRTXsKy8STe-10" edge="1">
          <mxGeometry relative="1" as="geometry" />
        </mxCell>
        <mxCell id="js38OZRFwgRTXsKy8STe-7" value="Просмотр информации о ветеринарной клинике, о ветеринарах." style="rounded=1;whiteSpace=wrap;html=1;arcSize=40;fontColor=#000000;fillColor=#ffffc0;strokeColor=#ff0000;" parent="1" vertex="1">
          <mxGeometry x="270" y="130" width="120" height="80" as="geometry" />
        </mxCell>
        <mxCell id="js38OZRFwgRTXsKy8STe-11" style="edgeStyle=orthogonalEdgeStyle;rounded=0;orthogonalLoop=1;jettySize=auto;html=1;entryX=1;entryY=0.75;entryDx=0;entryDy=0;" parent="1" source="js38OZRFwgRTXsKy8STe-10" target="js38OZRFwgRTXsKy8STe-5" edge="1">
          <mxGeometry relative="1" as="geometry">
            <Array as="points">
              <mxPoint x="260" y="255" />
              <mxPoint x="260" y="160" />
            </Array>
          </mxGeometry>
        </mxCell>
        <mxCell id="js38OZRFwgRTXsKy8STe-13" style="edgeStyle=orthogonalEdgeStyle;rounded=0;orthogonalLoop=1;jettySize=auto;html=1;entryX=1;entryY=0.5;entryDx=0;entryDy=0;" parent="1" source="js38OZRFwgRTXsKy8STe-10" target="J8UC4zP5dDmnpQcp4e6_-3" edge="1">
          <mxGeometry relative="1" as="geometry">
            <mxPoint x="330.0000000000001" y="490" as="targetPoint" />
            <Array as="points">
              <mxPoint x="330" y="485" />
            </Array>
          </mxGeometry>
        </mxCell>
        <mxCell id="js38OZRFwgRTXsKy8STe-10" value="" style="rhombus;whiteSpace=wrap;html=1;" parent="1" vertex="1">
          <mxGeometry x="315" y="240" width="30" height="30" as="geometry" />
        </mxCell>
        <mxCell id="js38OZRFwgRTXsKy8STe-15" value="&lt;font style=&quot;font-size: 10px;&quot;&gt;Устраивает&lt;/font&gt;" style="text;html=1;strokeColor=none;fillColor=none;align=center;verticalAlign=middle;whiteSpace=wrap;rounded=0;" parent="1" vertex="1">
          <mxGeometry x="260" y="230" width="60" height="30" as="geometry" />
        </mxCell>
        <mxCell id="js38OZRFwgRTXsKy8STe-16" value="&lt;font style=&quot;font-size: 10px;&quot;&gt;Не устраивает&lt;/font&gt;" style="text;html=1;strokeColor=none;fillColor=none;align=center;verticalAlign=middle;whiteSpace=wrap;rounded=0;" parent="1" vertex="1">
          <mxGeometry x="330" y="260" width="60" height="30" as="geometry" />
        </mxCell>
      </root>
    </mxGraphModel>
  </diagram>
  <diagram id="y6f8JgHUcjYmwZK0WVAz" name="Страница — 2">
    <mxGraphModel dx="1921" dy="938" grid="1" gridSize="10" guides="1" tooltips="1" connect="1" arrows="1" fold="1" page="1" pageScale="1" pageWidth="827" pageHeight="1169" math="0" shadow="0">
      <root>
        <mxCell id="0" />
        <mxCell id="1" parent="0" />
        <mxCell id="FUz54t_hHQfUEaern5U6-1" value="" style="endArrow=none;html=1;rounded=0;" parent="1" edge="1">
          <mxGeometry width="50" height="50" relative="1" as="geometry">
            <mxPoint x="230" y="590" as="sourcePoint" />
            <mxPoint x="230" as="targetPoint" />
          </mxGeometry>
        </mxCell>
        <mxCell id="FUz54t_hHQfUEaern5U6-5" value="Клиент" style="text;html=1;strokeColor=none;fillColor=none;align=center;verticalAlign=middle;whiteSpace=wrap;rounded=0;" parent="1" vertex="1">
          <mxGeometry x="90" width="60" height="30" as="geometry" />
        </mxCell>
        <mxCell id="FUz54t_hHQfUEaern5U6-6" value="База данных" style="text;html=1;strokeColor=none;fillColor=none;align=center;verticalAlign=middle;whiteSpace=wrap;rounded=0;" parent="1" vertex="1">
          <mxGeometry x="280" width="60" height="30" as="geometry" />
        </mxCell>
        <mxCell id="tbgYZGlrrybZQzoMSFc--1" value="" style="ellipse;html=1;shape=endState;fillColor=#000000;strokeColor=#ff0000;" parent="1" vertex="1">
          <mxGeometry x="100" y="530" width="40" height="40" as="geometry" />
        </mxCell>
        <mxCell id="tbgYZGlrrybZQzoMSFc--9" value="" style="edgeStyle=orthogonalEdgeStyle;rounded=0;orthogonalLoop=1;jettySize=auto;html=1;entryX=0.25;entryY=0;entryDx=0;entryDy=0;" parent="1" source="tbgYZGlrrybZQzoMSFc--2" target="tbgYZGlrrybZQzoMSFc--8" edge="1">
          <mxGeometry relative="1" as="geometry">
            <Array as="points" />
          </mxGeometry>
        </mxCell>
        <mxCell id="tbgYZGlrrybZQzoMSFc--2" value="" style="ellipse;html=1;shape=startState;fillColor=#000000;strokeColor=#ff0000;" parent="1" vertex="1">
          <mxGeometry x="100" y="20" width="40" height="40" as="geometry" />
        </mxCell>
        <mxCell id="tbgYZGlrrybZQzoMSFc--4" value="Просмотр информации о ветеринарной клинике" style="rounded=1;whiteSpace=wrap;html=1;arcSize=40;fontColor=#000000;fillColor=#ffffc0;strokeColor=#ff0000;" parent="1" vertex="1">
          <mxGeometry x="350" y="140" width="90" height="60" as="geometry" />
        </mxCell>
        <mxCell id="tbgYZGlrrybZQzoMSFc--13" value="" style="edgeStyle=orthogonalEdgeStyle;rounded=0;orthogonalLoop=1;jettySize=auto;html=1;entryX=0.5;entryY=0;entryDx=0;entryDy=0;exitX=0.839;exitY=1.019;exitDx=0;exitDy=0;exitPerimeter=0;" parent="1" source="tbgYZGlrrybZQzoMSFc--8" target="tbgYZGlrrybZQzoMSFc--11" edge="1">
          <mxGeometry relative="1" as="geometry">
            <Array as="points">
              <mxPoint x="161" y="120" />
              <mxPoint x="295" y="120" />
            </Array>
          </mxGeometry>
        </mxCell>
        <mxCell id="tbgYZGlrrybZQzoMSFc--8" value="" style="rounded=0;whiteSpace=wrap;html=1;fillColor=#000000;" parent="1" vertex="1">
          <mxGeometry x="100" y="90" width="80" height="10" as="geometry" />
        </mxCell>
        <mxCell id="kx8srZb0v4AhZJLQ3gzL-8" style="edgeStyle=orthogonalEdgeStyle;rounded=0;orthogonalLoop=1;jettySize=auto;html=1;exitX=0.5;exitY=1;exitDx=0;exitDy=0;entryX=1;entryY=0.333;entryDx=0;entryDy=0;entryPerimeter=0;" parent="1" source="tbgYZGlrrybZQzoMSFc--11" target="kx8srZb0v4AhZJLQ3gzL-6" edge="1">
          <mxGeometry relative="1" as="geometry">
            <Array as="points">
              <mxPoint x="295" y="220" />
            </Array>
          </mxGeometry>
        </mxCell>
        <mxCell id="tbgYZGlrrybZQzoMSFc--11" value="Просмотр/хранение расписания" style="rounded=1;whiteSpace=wrap;html=1;arcSize=40;fontColor=#000000;fillColor=#ffffc0;strokeColor=#ff0000;" parent="1" vertex="1">
          <mxGeometry x="250" y="140" width="90" height="60" as="geometry" />
        </mxCell>
        <mxCell id="kx8srZb0v4AhZJLQ3gzL-1" value="" style="edgeStyle=orthogonalEdgeStyle;rounded=0;orthogonalLoop=1;jettySize=auto;html=1;" parent="1" source="kx8srZb0v4AhZJLQ3gzL-2" target="kx8srZb0v4AhZJLQ3gzL-4" edge="1">
          <mxGeometry relative="1" as="geometry" />
        </mxCell>
        <mxCell id="kx8srZb0v4AhZJLQ3gzL-2" value="Выбор удобного времени из доступных" style="rounded=1;whiteSpace=wrap;html=1;arcSize=40;fontColor=#000000;fillColor=#ffffc0;strokeColor=#ff0000;" parent="1" vertex="1">
          <mxGeometry x="70" y="290" width="120" height="50" as="geometry" />
        </mxCell>
        <mxCell id="kx8srZb0v4AhZJLQ3gzL-3" value="" style="edgeStyle=orthogonalEdgeStyle;rounded=0;orthogonalLoop=1;jettySize=auto;html=1;" parent="1" source="kx8srZb0v4AhZJLQ3gzL-4" target="kx8srZb0v4AhZJLQ3gzL-5" edge="1">
          <mxGeometry relative="1" as="geometry" />
        </mxCell>
        <mxCell id="kx8srZb0v4AhZJLQ3gzL-4" value="Выбор ветеринара из доступных" style="rounded=1;whiteSpace=wrap;html=1;arcSize=40;fontColor=#000000;fillColor=#ffffc0;strokeColor=#ff0000;" parent="1" vertex="1">
          <mxGeometry x="70" y="360" width="120" height="40" as="geometry" />
        </mxCell>
        <mxCell id="kx8srZb0v4AhZJLQ3gzL-5" value="Подтверждение записи на приём" style="rounded=1;whiteSpace=wrap;html=1;arcSize=40;fontColor=#000000;fillColor=#ffffc0;strokeColor=#ff0000;" parent="1" vertex="1">
          <mxGeometry x="70" y="430" width="120" height="40" as="geometry" />
        </mxCell>
        <mxCell id="kx8srZb0v4AhZJLQ3gzL-10" value="" style="edgeStyle=orthogonalEdgeStyle;rounded=0;orthogonalLoop=1;jettySize=auto;html=1;" parent="1" source="kx8srZb0v4AhZJLQ3gzL-6" target="kx8srZb0v4AhZJLQ3gzL-2" edge="1">
          <mxGeometry relative="1" as="geometry" />
        </mxCell>
        <mxCell id="kx8srZb0v4AhZJLQ3gzL-6" value="Начало записи на приём" style="rounded=1;whiteSpace=wrap;html=1;arcSize=40;fontColor=#000000;fillColor=#ffffc0;strokeColor=#ff0000;" parent="1" vertex="1">
          <mxGeometry x="85" y="200" width="90" height="60" as="geometry" />
        </mxCell>
        <mxCell id="kx8srZb0v4AhZJLQ3gzL-7" style="edgeStyle=orthogonalEdgeStyle;rounded=0;orthogonalLoop=1;jettySize=auto;html=1;" parent="1" edge="1">
          <mxGeometry relative="1" as="geometry">
            <mxPoint x="130" y="100" as="sourcePoint" />
            <mxPoint x="130" y="200" as="targetPoint" />
            <Array as="points">
              <mxPoint x="130" y="101" />
            </Array>
          </mxGeometry>
        </mxCell>
        <mxCell id="kx8srZb0v4AhZJLQ3gzL-11" value="Регистрация записи" style="rounded=1;whiteSpace=wrap;html=1;arcSize=40;fontColor=#000000;fillColor=#ffffc0;strokeColor=#ff0000;" parent="1" vertex="1">
          <mxGeometry x="250" y="480" width="120" height="40" as="geometry" />
        </mxCell>
        <mxCell id="kx8srZb0v4AhZJLQ3gzL-13" value="" style="endArrow=classic;html=1;rounded=0;exitX=1;exitY=0.5;exitDx=0;exitDy=0;entryX=0.5;entryY=0;entryDx=0;entryDy=0;" parent="1" source="kx8srZb0v4AhZJLQ3gzL-5" target="kx8srZb0v4AhZJLQ3gzL-11" edge="1">
          <mxGeometry width="50" height="50" relative="1" as="geometry">
            <mxPoint x="290" y="470" as="sourcePoint" />
            <mxPoint x="340" y="420" as="targetPoint" />
            <Array as="points">
              <mxPoint x="310" y="450" />
            </Array>
          </mxGeometry>
        </mxCell>
        <mxCell id="kx8srZb0v4AhZJLQ3gzL-14" value="" style="endArrow=classic;html=1;rounded=0;exitX=0.533;exitY=1.075;exitDx=0;exitDy=0;exitPerimeter=0;entryX=1.016;entryY=0.504;entryDx=0;entryDy=0;entryPerimeter=0;" parent="1" source="kx8srZb0v4AhZJLQ3gzL-11" target="tbgYZGlrrybZQzoMSFc--1" edge="1">
          <mxGeometry width="50" height="50" relative="1" as="geometry">
            <mxPoint x="340" y="650" as="sourcePoint" />
            <mxPoint x="150" y="600" as="targetPoint" />
            <Array as="points">
              <mxPoint x="314" y="550" />
            </Array>
          </mxGeometry>
        </mxCell>
        <mxCell id="-Npqg75RsYYkLhNHjepc-2" value="" style="edgeStyle=orthogonalEdgeStyle;rounded=0;orthogonalLoop=1;jettySize=auto;html=1;entryX=0.5;entryY=0;entryDx=0;entryDy=0;exitX=0.839;exitY=1.019;exitDx=0;exitDy=0;exitPerimeter=0;" edge="1" parent="1" target="tbgYZGlrrybZQzoMSFc--4">
          <mxGeometry relative="1" as="geometry">
            <Array as="points">
              <mxPoint x="171" y="110" />
              <mxPoint x="395" y="110" />
            </Array>
            <mxPoint x="171" y="100" as="sourcePoint" />
            <mxPoint x="305" y="140" as="targetPoint" />
          </mxGeometry>
        </mxCell>
        <mxCell id="-Npqg75RsYYkLhNHjepc-4" style="edgeStyle=orthogonalEdgeStyle;rounded=0;orthogonalLoop=1;jettySize=auto;html=1;exitX=0.5;exitY=1;exitDx=0;exitDy=0;entryX=1.002;entryY=0.487;entryDx=0;entryDy=0;entryPerimeter=0;" edge="1" parent="1" source="tbgYZGlrrybZQzoMSFc--4" target="kx8srZb0v4AhZJLQ3gzL-6">
          <mxGeometry relative="1" as="geometry">
            <mxPoint x="400" y="210" as="sourcePoint" />
            <mxPoint x="310" y="230" as="targetPoint" />
            <Array as="points">
              <mxPoint x="395" y="229" />
            </Array>
          </mxGeometry>
        </mxCell>
      </root>
    </mxGraphModel>
  </diagram>
</mxfile>
